# xmcd
#
# Track frame offsets:
# 150
# 12902
# 32788
# 47317
# 61228
# 72364
# 85871
# 100297
# 116994
# 126830
# 141487
# 152818
# 167981
# 187064
# 200350
# 214455
# 230572
# 249628
# 266527
# 277717
#
# Disc length: 3829 seconds
#
#
# Revision: 0
# Processed by: cddbd v1.5.2PL0 Copyright (c) Steve Scherf et al.
# Submitted via: FreeRIP 2.951 
#
DISCID=2b0ef314
DTITLE=Teixeirinha - As 20 +
DYEAR=1900
DGENRE=Country
TTITLE0=Velho Casarão
TTITLE1=Tordilho negro
TTITLE2=O colono
TTITLE3=Querencia amada
TTITLE4=A morte não marca hora
TTITLE5=tropeiro velho
TTITLE6=a volta do tropeiro velho
TTITLE7=a volta do tordilho negro
TTITLE8=paulistiha bonita
TTITLE9=saudade da minha terra
TTITLE10=meu velho pai
TTITLE11=amor de contrabando
TTITLE12=adeus gaúcha
TTITLE13=chófer de táxi
TTITLE14=gaúcho amigo
TTITLE15=lindo rancho
TTITLE16=passo fundo do coração
TTITLE17=espero ser feliz
TTITLE18=pedaços de mim
TTITLE19=coração de luto
EXTD=
EXTT0=
EXTT1=
EXTT2=
EXTT3=
EXTT4=
EXTT5=
EXTT6=
EXTT7=
EXTT8=
EXTT9=
EXTT10=
EXTT11=
EXTT12=
EXTT13=
EXTT14=
EXTT15=
EXTT16=
EXTT17=
EXTT18=
EXTT19=
PLAYORDER=
